<?xml version="1.0" encoding="UTF-8"?>
<svg version="1.1" xmlns="http://www.w3.org/2000/svg" width="48" height="48">
<path d="M0 0 C2.81831785 2.59581908 3.85564038 4.23008205 4.5625 8 C3.82020487 11.95890738 2.01305468 13.43890352 -1 16 C-1.99 15.34 -2.98 14.68 -4 14 C-3.67 11.03 -3.34 8.06 -3 5 C-9.88345859 8.27783742 -12.244481 14.14543254 -15 21 C-15.88898796 24.01832578 -16.48148998 26.88893988 -17 30 C-11.01791538 28.82959214 -7.21117123 26.20363243 -2.4296875 22.4609375 C0.31588777 20.81006105 1.85432854 20.69774687 5 21 C5.8125 22.625 5.8125 22.625 6 25 C2.61095212 29.77810735 -0.56185059 32.2809253 -5.875 34.9375 C-6.46152344 35.25267578 -7.04804688 35.56785156 -7.65234375 35.89257812 C-12.1314471 38.12228562 -15.19172969 38.20641764 -20 37 C-22.9375 35.0625 -22.9375 35.0625 -25 32 C-26.43473178 24.90185332 -24.57071368 18.16067133 -21 12 C-15.85905231 5.14215137 -9.47059206 -3.29411898 0 0 Z " fill="#C2C2C2" transform="translate(34,6)"/>
</svg>
